<?xml version="1.0" encoding="UTF-8" standalone="no"?><!DOCTYPE svg PUBLIC "-//W3C//DTD SVG 1.1//EN" "http://www.w3.org/Graphics/SVG/1.1/DTD/svg11.dtd"><svg width="100%" height="100%" viewBox="0 0 4961 3508" version="1.1" xmlns="http://www.w3.org/2000/svg" xmlns:xlink="http://www.w3.org/1999/xlink" xml:space="preserve" xmlns:serif="http://www.serif.com/" style="fill-rule:evenodd;clip-rule:evenodd;stroke-linecap:round;stroke-linejoin:round;stroke-miterlimit:1.5;"><g><g transform="matrix(2826.578051,0,0,2826.578051,4829.491131,2181.749931)"></g><text x="94.973px" y="2181.75px" style="font-family:'Quicksand-Medium', 'Quicksand Medium';font-weight:500;font-size:2826.578px;">Yōji</text><text x="110.925px" y="3299.759px" style="font-family:'MalgunGothic', 'Malgun Gothic', sans-serif;font-size:687.781px;">用事</text><path d="M2327.218,1389.386c-9.868,-11.607 -27.109,-38.943 -26.929,-83.559c0.183,-45.443 26.572,-237.852 34.192,-283.264c0.84,-3.302 2.505,-6.6 5.817,-8.239c2.485,-1.642 5.794,-2.455 9.092,-0.79c31.36,9.215 109.582,76.456 112.061,76.466c37.204,-5.634 192.542,-6.66 229.692,0.926c1.652,0.007 80.414,-66.602 111.848,-75.564c3.312,-1.639 6.613,-0.8 9.911,0.866c2.472,1.662 4.937,4.977 4.924,8.282c8.079,45.476 32.916,238.091 32.733,283.534c-0.18,44.617 -17.641,71.812 -28.428,83.336c-6.646,9.062 -15.768,17.288 -26.529,22.202c-10.761,4.914 -21.515,8.176 -31.44,10.614c-11.577,2.432 -23.151,4.038 -33.063,3.172c-3.305,-0.013 -6.62,2.452 -7.463,6.58c-0.017,4.131 3.275,7.449 6.58,7.463c10.738,0.87 23.964,-0.73 37.197,-3.981c10.751,-2.435 36.407,-13.073 38.063,-13.893c9.072,4.168 35.058,116.642 24.794,203.356c-0.007,1.652 0.813,3.308 2.462,4.141c1.652,0.007 3.305,0.013 4.138,-1.636c3.328,-5.77 5.837,-13.196 5.877,-23.111c0.017,-4.131 0.863,-9.085 0.883,-14.043c0.003,-0.826 0.007,-1.652 0.833,-1.649c0.83,-0.823 1.656,-0.82 2.482,-0.816c9.911,0.866 19.82,2.559 28.905,3.421c28.079,3.418 51.989,15.908 69.26,35.808c14.806,16.585 21.279,50.487 21.182,74.447c-0.057,14.046 -11.667,24.74 -25.713,24.684c-13.22,-0.053 -23.917,-10.838 -24.687,-24.887c-0.79,-9.092 -0.763,-15.702 -10.638,-25.656c-8.229,-8.296 -21.459,-5.87 -29.724,-5.077c-10.744,0.783 -38.023,3.978 -57.037,6.38c-4.171,9.898 -9.165,18.967 -14.979,26.379c0.81,4.134 9.625,71.922 -82.913,71.549c-12.393,-0.05 -24.797,2.379 -34.682,-5.097c-3.458,37.993 39.383,68.737 -63.896,68.321c-54.531,-0.22 -42.035,-25.783 -31.154,-60.441c-5.787,0.803 -11.571,0.78 -17.354,0.756c-6.61,-0.027 -12.393,-0.05 -18.174,-0.9c10.601,34.745 22.891,60.408 -31.64,60.188c-102.453,-0.413 -60.192,-30.814 -63.343,-68.834c-9.945,7.396 -21.502,4.871 -34.722,4.818c-91.712,-0.37 -82.35,-68.084 -82.333,-72.215c-56.73,-69.633 -11.281,-276.011 1.136,-281.745c0.823,0.83 26.393,11.674 37.95,14.199c13.206,3.358 25.593,5.061 36.338,4.278c4.131,0.017 6.623,-3.278 6.64,-7.409c0.017,-4.131 -3.278,-6.623 -7.409,-6.64c-9.918,0.786 -20.652,-0.909 -32.21,-3.435c-10.731,-2.522 -21.459,-5.87 -32.18,-10.871c-10.721,-5.001 -19.776,-13.3 -26.349,-22.415Zm131.104,-138.281c-19.063,14.796 -43.877,21.306 -56.27,21.256c-6.61,-0.027 -6.646,9.062 1.609,10.748c8.256,1.686 57.09,-19.6 60.405,-22.065c6.633,-5.757 0.057,-14.046 -5.744,-9.938Zm129.559,40.182c5.797,-3.282 11.601,-8.216 11.617,-12.347c0.04,-9.915 -15.652,-11.631 -23.914,-11.664c-9.089,-0.037 -24.794,1.553 -24.834,11.467c-0.017,4.131 5.747,9.112 11.517,12.44c0.826,0.003 1.646,1.659 1.642,2.485c0.82,1.656 -19.9,17.271 -33.945,17.214c-21.482,-0.087 -23.894,-16.621 -37.107,-18.327c-2.475,-0.836 -4.957,-0.02 -5.794,2.455c-0.836,2.475 -0.846,4.954 1.626,6.617c12.36,8.312 28.012,19.943 41.232,19.996c15.698,0.063 38.923,-22.152 45.533,-22.125c6.61,0.027 28.828,22.425 45.353,22.491c13.22,0.053 28.139,-11.454 41.392,-19.663c1.659,-1.646 2.495,-4.121 1.679,-6.603c-1.642,-2.485 -4.118,-3.322 -6.6,-2.505c-13.226,1.599 -14.945,18.117 -36.427,18.031c-14.046,-0.057 -34.638,-15.838 -34.632,-17.491c0.003,-0.826 0.836,-2.475 1.662,-2.472Zm158.667,-6.797c13.373,-37.953 -43.557,-58.013 -60.225,-22.551c-1.672,4.951 4.914,10.761 9.891,5.824c13.276,-13.993 42.144,-1.483 39.599,15.032c-0.853,6.607 8.229,8.296 10.734,1.696Zm2.199,-135.495c7.386,12.423 27.929,40.599 51.889,40.695c22.308,0.09 4.704,-142.095 -1.066,-145.423c-5.77,-3.328 -56.567,94.79 -50.823,104.728Zm-346.191,-1.396c6.65,-9.888 -44.18,-108.416 -49.977,-105.135c-5.797,3.282 -23.721,145.324 -2.239,145.41c24.787,0.1 45.556,-27.909 52.216,-40.276Zm172.719,196.516c-6.61,-0.027 -8.182,-19.863 -9.009,-19.866c-0.823,-0.83 -24.804,4.031 -26.463,5.677c-1.662,2.472 -0.16,39.659 35.368,39.802c34.702,0.14 36.504,-37.034 34.862,-39.519c-0.82,-1.656 -25.587,-6.713 -26.416,-5.89c-0.826,-0.003 -2.559,19.82 -8.342,19.796Z" style="fill:#da803a;stroke:#0e0e0e;stroke-width:16.67px;"/></g></svg>